<svg width="21" height="20" viewBox="0 0 21 20" fill="none" xmlns="http://www.w3.org/2000/svg">
<path d="M9.53137 0.0988534C9.42796 0.0342201 9.30892 0 9.1875 0C9.06608 0 8.94704 0.0342201 8.84363 0.0988534L0.937126 5.04147C0.650453 5.22064 0.413784 5.47148 0.249722 5.77003C0.085659 6.06858 -0.000318236 6.40487 8.85129e-07 6.74679V14.0001C8.85129e-07 14.8841 0.345703 15.7319 0.961057 16.3571C1.57641 16.9822 2.41101 17.3334 3.28125 17.3334H15.0938C15.964 17.3334 16.7986 16.9822 17.4139 16.3571C18.0293 15.7319 18.375 14.8841 18.375 14.0001V6.74546C18.3751 6.40376 18.289 6.06774 18.125 5.76944C17.9609 5.47115 17.7244 5.22052 17.4379 5.04147L9.53137 0.0988534ZM1.90838 6.00013L9.1875 1.44951L16.4666 6.00013L9.1875 10.5508L1.90838 6.00013ZM1.3125 7.19345L8.84363 11.9001C8.94704 11.9647 9.06608 11.9989 9.1875 11.9989C9.30892 11.9989 9.42796 11.9647 9.53137 11.9001L17.0625 7.19479V14.0001C17.0625 14.5305 16.8551 15.0392 16.4859 15.4143C16.1167 15.7893 15.6159 16 15.0938 16H3.28125C2.75911 16 2.25835 15.7893 1.88913 15.4143C1.51992 15.0392 1.3125 14.5305 1.3125 14.0001V7.19345ZM5.90625 20C5.39685 20 4.89445 19.8795 4.43883 19.6481C3.98321 19.4167 3.58689 19.0807 3.28125 18.6667H15.75C16.7943 18.6667 17.7958 18.2453 18.5342 17.4951C19.2727 16.745 19.6875 15.7276 19.6875 14.6667V6.74546C19.6875 6.52679 19.6669 6.31213 19.6258 6.10146L20.0629 6.37479C20.3495 6.55396 20.5862 6.8048 20.7503 7.10335C20.9143 7.4019 21.0003 7.73819 21 8.08011V14.6667C21 16.0812 20.4469 17.4377 19.4623 18.4379C18.4777 19.4381 17.1424 20 15.75 20H5.90625Z" fill="#5FEEAB"/>
</svg>
