<svg width="20" height="20" viewBox="0 0 20 20" fill="none" xmlns="http://www.w3.org/2000/svg">
<path d="M12.2655 1.26967C12.2862 1.19192 12.3221 1.11902 12.371 1.05513C12.4199 0.99125 12.4809 0.937636 12.5506 0.897357C12.6202 0.857079 12.6972 0.830926 12.7769 0.820394C12.8567 0.809862 12.9378 0.815158 13.0155 0.835978C14.4943 1.22173 15.8435 1.99476 16.9241 3.07543C18.0048 4.15611 18.7778 5.50535 19.1635 6.98418C19.1843 7.0619 19.1896 7.14297 19.1791 7.22274C19.1686 7.30251 19.1424 7.37943 19.1021 7.44909C19.0619 7.51874 19.0083 7.57978 18.9444 7.6287C18.8805 7.67763 18.8076 7.71348 18.7298 7.73421C18.6782 7.74788 18.6251 7.75474 18.5717 7.75462C18.4368 7.7547 18.3056 7.71023 18.1986 7.62811C18.0916 7.546 18.0147 7.43084 17.9798 7.30052C17.6487 6.03025 16.9848 4.87127 16.0565 3.94304C15.1283 3.0148 13.9694 2.35087 12.6992 2.0197C12.6214 1.99897 12.5485 1.96312 12.4846 1.9142C12.4207 1.86527 12.3671 1.80424 12.3268 1.73458C12.2866 1.66492 12.2604 1.58801 12.2499 1.50823C12.2394 1.42846 12.2447 1.34739 12.2655 1.26967ZM11.8828 5.28513C13.3675 5.68107 14.3186 6.63212 14.7145 8.11687C14.7493 8.24719 14.8262 8.36236 14.9333 8.44447C15.0403 8.52659 15.1714 8.57106 15.3063 8.57097C15.3597 8.5711 15.4129 8.56423 15.4645 8.55056C15.5422 8.52984 15.6151 8.49399 15.679 8.44506C15.7429 8.39614 15.7965 8.3351 15.8368 8.26544C15.8771 8.19579 15.9032 8.11887 15.9138 8.0391C15.9243 7.95933 15.919 7.87826 15.8982 7.80054C15.388 5.89128 14.1084 4.61164 12.1991 4.10141C12.1214 4.08064 12.0404 4.07538 11.9606 4.08594C11.8809 4.09649 11.804 4.12265 11.7343 4.16292C11.6647 4.20319 11.6036 4.25679 11.5547 4.32065C11.5058 4.38451 11.4699 4.45738 11.4491 4.5351C11.4284 4.61283 11.4231 4.69388 11.4337 4.77364C11.4442 4.85339 11.4704 4.93029 11.5106 4.99994C11.5509 5.06958 11.6045 5.13062 11.6684 5.17955C11.7322 5.22848 11.8051 5.26436 11.8828 5.28513ZM19.989 15.1835C19.8142 16.5174 19.1596 17.7421 18.1476 18.6285C17.1355 19.5149 15.8353 20.0025 14.49 20C6.50009 20 1.01758e-05 13.4997 1.01758e-05 5.50963C-0.00256716 4.16472 0.484526 2.86487 1.3703 1.85287C2.25608 0.840877 3.47996 0.185953 4.81334 0.0104355C5.12028 -0.0268663 5.43103 0.0364254 5.69894 0.190805C5.96684 0.345185 6.17743 0.582318 6.29907 0.866591L8.45216 5.6729C8.54722 5.89049 8.58656 6.12834 8.56661 6.36495C8.54665 6.60156 8.46804 6.82946 8.33787 7.02806C8.32474 7.04827 8.31043 7.06769 8.29501 7.08622L6.14499 9.64346C6.13193 9.66997 6.12514 9.69912 6.12514 9.72867C6.12514 9.75822 6.13193 9.78737 6.14499 9.81388C6.92663 11.4139 8.6042 13.0793 10.2267 13.86C10.2538 13.8723 10.2834 13.8782 10.3131 13.8771C10.3429 13.8761 10.372 13.8681 10.3981 13.8538L12.9175 11.7109C12.9355 11.6953 12.9546 11.681 12.9747 11.668C13.1724 11.5362 13.3998 11.4558 13.6364 11.4341C13.8731 11.4123 14.1114 11.45 14.3298 11.5435L19.1503 13.7038C19.4307 13.8281 19.6637 14.0394 19.8148 14.3065C19.9659 14.5735 20.027 14.8821 19.989 15.1865V15.1835ZM18.7758 15.0325C18.7792 14.9898 18.7691 14.9471 18.7469 14.9105C18.7248 14.8739 18.6917 14.8451 18.6523 14.8284L13.8308 12.6681C13.8045 12.6579 13.7762 12.6536 13.748 12.6553C13.7199 12.6571 13.6924 12.6649 13.6675 12.6783L11.1491 14.8212C11.1308 14.8365 11.1114 14.8508 11.092 14.8641C10.8866 15.0011 10.6491 15.0825 10.4029 15.1004C10.1566 15.1182 9.90993 15.072 9.68687 14.9661C7.81337 14.061 5.946 12.2109 5.04089 10.3547C4.93443 10.1329 4.88705 9.88744 4.90331 9.64198C4.91958 9.39652 4.99896 9.15942 5.13375 8.95364C5.14697 8.93323 5.16163 8.91379 5.17763 8.89548L7.32561 6.33517C7.33789 6.30844 7.34425 6.27938 7.34425 6.24996C7.34425 6.22055 7.33789 6.19148 7.32561 6.16476L5.17763 1.35743C5.16344 1.31882 5.13793 1.2854 5.10442 1.26154C5.07092 1.23769 5.03099 1.22452 4.98987 1.22375H4.9664C3.92857 1.36181 2.97647 1.8729 2.28789 2.66159C1.59931 3.45028 1.22132 4.46264 1.22452 5.50963C1.22452 12.8242 7.17561 18.7755 14.49 18.7755C15.5371 18.7786 16.5496 18.4005 17.3383 17.7117C18.127 17.0229 18.6379 16.0705 18.7758 15.0325Z" fill="#5FEEAB"/>
</svg>
